<svg version="1.1" id="Layer_1" xmlns="http://www.w3.org/2000/svg" xmlns:xlink="http://www.w3.org/1999/xlink" x="0px" y="0px"
	 width="100%" viewBox="0 0 500 500" enable-background="new 0 0 500 500" xml:space="preserve">
<path fill="#000000" opacity="1.000000" stroke="none" 
	d="
M282.000000,501.000000 
	C188.000015,501.000000 94.500046,501.000000 1.000050,501.000000 
	C1.000033,334.333405 1.000033,167.666794 1.000017,1.000140 
	C167.666565,1.000093 334.333130,1.000093 500.999756,1.000046 
	C500.999847,167.666519 500.999847,334.333038 500.999939,500.999786 
	C428.166656,501.000000 355.333344,501.000000 282.000000,501.000000 
M218.544846,302.920258 
	C218.544846,302.920258 219.023804,302.863037 219.814255,302.523010 
	C219.857910,292.712067 219.901550,282.901093 220.363647,272.693268 
	C215.027145,264.611694 210.618057,263.657318 202.904068,268.831879 
	C201.473175,269.791748 199.760895,270.353180 198.394882,271.384979 
	C193.055359,275.418152 184.507782,277.209900 187.047440,287.905548 
	C187.096649,290.938507 187.145859,293.971497 187.085556,297.866913 
	C187.143311,299.602783 187.201080,301.338623 187.130585,303.987671 
	C187.130585,309.199463 187.130585,314.411255 187.130585,320.336151 
	C187.623123,320.294006 189.338562,320.634888 190.451538,319.968933 
	C195.718613,316.817322 200.821045,313.390533 206.530380,309.818542 
	C207.032303,309.503143 207.534225,309.187775 208.708786,308.993561 
	C209.156494,308.364868 209.604202,307.736145 210.543610,306.931366 
	C210.705536,306.867462 210.867477,306.803558 211.722717,306.830322 
	C213.813828,305.584381 215.904953,304.338470 218.082855,303.078033 
	C218.082855,303.078033 218.069305,302.991089 218.544846,302.920258 
M312.949005,245.062134 
	C312.905640,240.707047 312.862305,236.351974 312.946899,231.162659 
	C313.049042,229.874878 313.151184,228.587082 313.262177,227.187592 
	C315.032684,227.017227 316.566010,226.869690 318.704590,226.663910 
	C316.751038,223.770828 314.998566,221.459518 313.550049,218.971298 
	C310.526947,213.778259 310.509460,213.779129 307.067139,218.780731 
	C305.680664,220.795212 303.949493,222.572403 302.375183,224.457596 
	C301.916565,224.177750 301.457947,223.897888 300.999329,223.618027 
	C300.999329,217.850571 301.233582,212.068085 300.864868,206.324295 
	C300.745209,204.460251 299.047455,202.697495 297.753693,200.262497 
	C294.292908,195.112808 290.225159,196.420090 286.180481,199.319855 
	C282.367188,202.053711 278.701019,204.992783 274.437500,208.104599 
	C273.944641,208.709854 273.451752,209.315109 272.223358,210.010513 
	C268.784393,212.298599 265.345428,214.586700 261.386658,217.006821 
	C261.154083,217.245529 260.921509,217.484238 260.557129,217.430847 
	C260.557129,217.430847 260.263702,217.559708 259.664246,218.070953 
	C259.664246,225.215927 259.664246,232.360886 259.664246,240.824478 
	C266.488953,235.938889 272.719299,231.478790 279.028595,227.038071 
	C279.028595,227.038071 279.048401,226.959213 279.655273,226.972565 
	C280.111237,226.659927 280.567200,226.347305 281.495575,225.993851 
	C281.495575,225.993851 281.953461,226.117340 281.989014,226.959259 
	C282.777771,230.944901 281.335388,233.846146 277.899567,235.992279 
	C272.570129,239.321213 267.331482,242.795486 261.403259,246.247253 
	C260.248383,247.151474 259.093536,248.055710 257.323090,249.250717 
	C255.618256,251.181473 253.913422,253.112213 252.089218,255.894501 
	C252.130890,257.893890 252.172562,259.893250 252.128342,262.597687 
	C252.092529,263.069824 252.056702,263.541992 251.379318,264.454224 
	C251.604050,268.822144 251.807678,273.191254 252.059326,277.557617 
	C252.318512,282.055084 252.624481,286.549805 252.956955,291.729553 
	C252.286194,293.145691 251.615417,294.561859 250.368408,296.073303 
	C249.921616,296.378510 249.474838,296.683716 248.504639,296.996796 
	C248.334915,296.956238 248.165207,296.915710 247.863693,296.428711 
	C247.676056,296.145599 247.412384,295.999237 247.072739,295.915985 
	C247.072739,295.915985 246.999115,295.914490 246.940552,295.079102 
	C246.637589,291.540588 244.893021,287.187073 246.335571,284.635406 
	C249.225906,279.522827 246.630646,275.487305 246.003601,270.404144 
	C246.388428,267.520691 246.812347,264.641815 247.150513,261.752899 
	C248.068420,253.911530 243.901871,249.596725 236.370941,246.881516 
	C234.972168,245.799362 233.633743,244.626190 232.163666,243.651596 
	C227.165359,240.338013 222.120575,237.094559 216.795364,233.136505 
	C216.482529,231.033707 216.169708,228.930908 215.834885,226.680344 
	C217.337601,226.861816 218.133759,226.957947 218.961838,227.042755 
	C218.961838,227.042755 218.955383,227.075989 219.245285,227.691910 
	C225.564331,231.905945 231.883362,236.119980 238.990829,240.859787 
	C238.990829,233.757263 239.097565,227.681198 238.902802,221.614838 
	C238.862762,220.367493 237.696381,219.156296 236.751770,217.310715 
	C233.867966,215.529373 230.984161,213.748016 228.072525,211.942261 
	C228.072525,211.942261 228.037048,211.938538 227.889359,211.482758 
	C227.687393,211.148254 227.409271,211.063324 226.480911,211.015854 
	C225.992554,210.652313 225.504211,210.288773 224.896149,209.448196 
	C224.690079,209.109039 224.403183,209.014359 223.534790,209.034424 
	C223.365143,209.003571 223.195511,208.972717 222.797989,208.419876 
	C222.462769,208.234009 222.127548,208.048141 221.617828,207.205994 
	C216.446945,203.668915 211.337372,200.034607 206.041321,196.696106 
	C205.215393,196.175430 203.319260,196.641174 202.292999,197.266357 
	C196.164703,200.999588 196.597122,206.997757 197.018448,213.891174 
	C196.944794,217.210205 196.871140,220.529221 196.083633,223.867477 
	C196.365143,225.117142 196.865250,226.362305 196.891144,227.617249 
	C197.017365,233.734711 197.159439,239.858475 197.001465,245.972412 
	C196.921600,249.063721 197.838425,251.030304 201.586227,252.056732 
	C204.730576,254.055084 207.874908,256.053406 211.305527,258.656738 
	C215.178116,261.111603 219.050705,263.566498 222.939819,266.085907 
	C222.939819,266.085907 223.003250,266.065613 223.338974,266.667694 
	C227.901306,268.805420 228.461166,272.650238 228.224640,277.158539 
	C227.966064,282.087646 228.245407,287.044983 228.148026,292.788696 
	C228.109375,293.869598 228.070724,294.950531 227.480316,296.317871 
	C227.660583,297.200378 227.840851,298.082855 228.079529,299.682648 
	C228.145187,300.156921 228.210831,300.631226 228.138550,301.917267 
	C228.173309,303.557007 228.208084,305.196716 228.102676,307.756348 
	C228.151718,310.835419 228.200745,313.914520 228.139938,317.845337 
	C228.067749,320.633392 227.995560,323.421478 228.048660,326.889618 
	C234.098175,331.655579 240.189728,336.369659 246.173080,341.217285 
	C248.115555,342.791046 249.660126,342.765472 251.633240,341.266205 
	C257.039246,337.158508 262.565002,333.208435 268.150330,329.186066 
	C268.150330,329.186066 268.150269,329.078644 268.870483,329.113251 
	C269.198853,328.394745 269.527252,327.676270 269.971710,326.032074 
	C269.911194,316.024994 269.850647,306.017883 269.885345,295.076447 
	C269.942749,286.734222 270.000183,278.391968 270.749115,269.953857 
	C276.165924,266.248901 281.582733,262.543945 287.682739,258.770874 
	C291.137695,256.221100 294.592682,253.671356 298.863403,251.012131 
	C299.545837,249.907059 300.793915,248.814316 300.818329,247.694901 
	C300.968536,240.804062 300.842529,233.907196 301.297333,226.469482 
	C303.392639,226.760712 305.487976,227.051941 307.985748,227.399109 
	C307.985748,234.261871 307.902405,241.070267 308.031799,247.874634 
	C308.075958,250.197891 308.654358,252.511017 309.825012,254.911423 
	C310.865997,254.069016 312.582092,253.374130 312.805206,252.352997 
	C313.248413,250.324646 312.869141,248.116608 312.949005,245.062134 
M189.655365,254.826172 
	C189.839890,245.540253 190.024399,236.254318 190.957123,226.998657 
	C191.899582,226.884964 192.842026,226.771271 194.567841,226.563080 
	C192.252640,222.920135 190.378891,219.685211 188.156326,216.710953 
	C187.699432,216.099503 185.234756,215.968918 184.894363,216.455429 
	C182.699692,219.592316 180.838028,222.962189 178.676880,226.573425 
	C180.916458,226.929565 182.325912,227.153702 184.081482,227.432877 
	C184.081482,236.539520 184.081482,245.440353 184.081482,254.717972 
	C185.887497,254.717972 187.306168,254.717972 189.655365,254.826172 
M268.912506,200.981064 
	C268.906036,199.160812 268.942566,197.339218 268.885498,195.520554 
	C268.671112,188.687775 268.426208,181.855972 267.822449,174.417572 
	C262.573547,170.480377 257.330597,166.535187 252.073135,162.609421 
	C249.502762,160.690125 247.080811,160.784760 244.571472,162.918716 
	C240.444321,166.428452 236.185745,169.783661 231.248413,173.350830 
	C230.497971,174.849396 229.170731,176.322357 229.102829,177.851227 
	C228.879272,182.886185 229.111755,187.941406 229.026291,193.869659 
	C229.089111,196.244629 229.151932,198.619614 229.076950,201.709579 
	C235.066727,206.306442 240.976166,211.016541 247.130295,215.381714 
	C248.085953,216.059555 250.541016,215.694748 251.653168,214.901459 
	C257.500549,210.730560 263.139313,206.267105 268.912506,200.981064 
M280.963165,268.902405 
	C280.963165,268.902405 280.915314,269.020142 280.286438,269.066986 
	C279.251282,269.972748 278.216156,270.878540 277.023682,272.756653 
	C277.084198,282.266510 277.144714,291.776398 277.437805,301.887482 
	C280.930420,303.969604 284.423035,306.051727 288.272003,308.736694 
	C293.626038,311.700195 298.893005,314.839813 304.372894,317.548706 
	C306.900940,318.798431 308.971649,317.822723 308.969696,314.542389 
	C308.967163,310.362823 308.883423,306.183350 308.958038,301.084198 
	C309.239960,296.059845 309.521851,291.035522 309.921906,285.158325 
	C310.430542,281.135559 309.560638,278.128387 305.535645,275.877167 
	C299.282196,272.379578 293.433167,268.158966 287.265533,264.149200 
	C286.076904,265.197174 285.006348,266.140991 283.312836,266.977112 
	C282.570404,267.630341 281.827942,268.283539 280.963165,268.902405 
z"/>
<path fill="#2F5FB9" opacity="1.000000" stroke="none" 
	d="
M308.988647,254.828766 
	C308.654358,252.511017 308.075958,250.197891 308.031799,247.874634 
	C307.902405,241.070267 307.985748,234.261871 307.985748,227.399109 
	C305.487976,227.051941 303.392639,226.760712 300.757782,226.883514 
	C299.847290,227.618942 299.386658,227.879425 299.120300,228.271805 
	C297.640320,230.451996 297.294617,233.863495 293.347717,233.254181 
	C290.787292,232.858902 288.156250,232.815720 285.656586,232.205826 
	C285.023438,232.051346 284.874786,230.271469 284.318481,229.350189 
	C283.631012,228.211639 282.750549,227.189682 281.953461,226.117340 
	C281.953461,226.117340 281.495575,225.993851 280.990906,226.080292 
	C280.006989,226.430893 279.527679,226.695053 279.048401,226.959229 
	C279.048401,226.959213 279.028595,227.038071 278.554565,227.012955 
	C276.587158,226.966415 275.080994,227.063858 273.602539,226.904404 
	C263.495575,225.814377 261.429138,224.344833 260.263702,217.559708 
	C260.263702,217.559708 260.557129,217.430847 260.838654,217.449036 
	C261.417664,217.316696 261.679749,217.119217 261.906464,216.874802 
	C265.345428,214.586700 268.784393,212.298599 272.484558,210.275696 
	C271.829071,212.026276 270.912323,213.511688 269.961060,215.018219 
	C269.926575,215.039337 270.002899,215.004379 270.439880,215.004150 
	C276.218170,216.487091 281.740784,217.514679 286.861755,219.551788 
	C296.436401,223.360565 298.644928,222.165726 298.941071,211.507751 
	C298.657440,207.675308 298.364502,204.281860 298.071533,200.888412 
	C299.047455,202.697495 300.745209,204.460251 300.864868,206.324295 
	C301.233582,212.068085 300.999329,217.850571 300.999329,223.618027 
	C301.457947,223.897888 301.916565,224.177750 302.375183,224.457596 
	C303.949493,222.572403 305.680664,220.795212 307.067139,218.780731 
	C310.509460,213.779129 310.526947,213.778259 313.550049,218.971298 
	C314.998566,221.459518 316.751038,223.770828 318.704590,226.663910 
	C316.566010,226.869690 315.032684,227.017227 313.262177,227.187592 
	C313.151184,228.587082 313.049042,229.874878 312.531067,231.681396 
	C306.760315,234.675690 309.802460,239.423248 309.115784,243.610352 
	C309.052582,247.643158 309.020599,251.235962 308.988647,254.828766 
z"/>
<path fill="#492BA4" opacity="1.000000" stroke="none" 
	d="
M309.803772,286.011169 
	C309.521851,291.035522 309.239960,296.059845 308.509796,301.528320 
	C303.881531,302.314941 299.706818,302.771606 295.519928,302.965546 
	C291.841217,303.135925 289.298065,304.714600 287.915649,308.133850 
	C284.423035,306.051727 280.930420,303.969604 277.580902,301.226685 
	C277.542999,290.972015 277.362000,281.378143 277.181000,271.784302 
	C278.216156,270.878540 279.251282,269.972748 280.526123,269.417206 
	C280.274109,274.153778 279.555145,278.531738 279.392303,282.930267 
	C279.317657,284.946747 280.330414,286.155548 283.235687,286.056152 
	C289.261108,285.850037 295.315826,286.751343 301.365692,286.896820 
	C304.169678,286.964233 306.990540,286.328247 309.803772,286.011169 
z"/>
<path fill="#4232A6" opacity="1.000000" stroke="none" 
	d="
M187.180206,287.005981 
	C184.507782,277.209900 193.055359,275.418152 198.394882,271.384979 
	C199.760895,270.353180 201.473175,269.791748 202.904068,268.831879 
	C210.618057,263.657318 215.027145,264.611694 219.978516,273.250122 
	C219.355804,281.514679 219.118195,289.222382 218.664551,296.955536 
	C218.448517,296.980957 218.014053,297.019073 218.011047,296.592773 
	C218.566177,292.206787 216.980988,290.134979 212.924881,289.287842 
	C204.412048,287.510010 196.033081,284.768097 187.180206,287.005981 
z"/>
<path fill="#393FAA" opacity="1.000000" stroke="none" 
	d="
M236.988892,247.214615 
	C243.901871,249.596725 248.068420,253.911530 247.150513,261.752899 
	C246.812347,264.641815 246.388428,267.520691 245.678970,270.738556 
	C243.763916,269.733124 242.299301,267.458405 240.560059,267.224304 
	C234.760849,266.443756 228.863190,266.394867 223.003250,266.065613 
	C223.003250,266.065613 222.939819,266.085907 222.842377,265.724609 
	C218.836380,262.926117 214.927811,260.488922 211.019257,258.051758 
	C207.874908,256.053406 204.730576,254.055084 201.195221,251.596344 
	C200.513855,250.429443 200.223511,249.722946 200.340607,249.017975 
	C207.235825,251.940796 213.958588,252.410065 220.924194,251.222687 
	C222.095886,251.022964 223.444260,251.921310 224.722183,252.271423 
	C228.504669,253.307709 235.004028,250.619217 236.988892,247.214615 
M239.097290,250.807144 
	C239.228882,251.277527 239.360474,251.747910 239.492035,252.218277 
	C239.731277,252.075668 239.970520,251.933075 240.209763,251.790482 
	C239.968277,251.446625 239.726807,251.102783 239.097290,250.807144 
M242.128616,254.787064 
	C242.014938,254.848953 241.901276,254.910858 241.787613,254.972763 
	C241.871399,255.066818 241.955185,255.160858 242.038956,255.254898 
	C242.111832,255.147263 242.184692,255.039627 242.128616,254.787064 
z"/>
<path fill="#4F28A3" opacity="1.000000" stroke="none" 
	d="
M228.276474,301.105499 
	C228.210831,300.631226 228.145187,300.156921 228.199188,299.099670 
	C228.223251,297.688263 228.127655,296.859833 228.032074,296.031433 
	C228.070724,294.950531 228.109375,293.869598 228.520447,292.246277 
	C235.981567,288.578217 242.082123,289.701630 246.999115,295.914490 
	C246.999115,295.914490 247.072739,295.915985 247.212646,296.115173 
	C247.547241,296.523834 247.761551,296.710754 247.995499,296.875153 
	C248.165207,296.915710 248.334915,296.956238 248.966248,297.088440 
	C249.933441,296.779388 250.439041,296.378693 250.944641,295.977997 
	C251.615417,294.561859 252.286194,293.145691 253.304993,291.238892 
	C257.068512,290.812103 260.556549,291.343048 263.881866,290.826416 
	C268.468842,290.113678 269.406311,292.234802 269.085541,296.458588 
	C268.899841,304.859680 268.311218,305.491180 261.696259,304.926453 
	C256.161987,304.454010 250.625168,303.654938 245.089600,303.655853 
	C239.741989,303.656708 234.394531,304.495270 229.024384,304.633820 
	C228.760010,303.236328 228.518234,302.170929 228.276474,301.105499 
z"/>
<path fill="#2F5FB9" opacity="1.000000" stroke="none" 
	d="
M228.100357,211.966660 
	C230.984161,213.748016 233.867966,215.529373 236.877533,218.010513 
	C236.992584,221.667786 237.055969,224.627823 236.953201,227.582092 
	C236.810272,231.690826 234.364090,233.383759 231.285568,230.818390 
	C227.490860,227.656219 223.284760,227.555435 218.955383,227.075989 
	C218.955383,227.075989 218.961838,227.042755 218.828201,226.734390 
	C217.286850,225.844925 215.834915,224.691650 214.480179,224.796310 
	C211.185959,225.050797 207.741928,225.403320 204.718735,226.615448 
	C200.910873,228.142227 198.701126,226.874176 196.797485,223.848251 
	C196.871140,220.529221 196.944794,217.210205 197.441589,213.489716 
	C202.491394,217.306122 207.768997,217.193619 213.495895,215.898193 
	C217.386856,215.018066 221.495728,215.139969 225.450089,214.474533 
	C226.445984,214.306946 227.222839,212.837723 228.100357,211.966660 
z"/>
<path fill="#4232A6" opacity="1.000000" stroke="none" 
	d="
M309.862854,285.584747 
	C306.990540,286.328247 304.169678,286.964233 301.365692,286.896820 
	C295.315826,286.751343 289.261108,285.850037 283.235687,286.056152 
	C280.330414,286.155548 279.317657,284.946747 279.392303,282.930267 
	C279.555145,278.531738 280.274109,274.153778 280.840576,269.393799 
	C280.915314,269.020142 280.963165,268.902405 281.306458,268.853333 
	C282.411804,268.231140 283.173798,267.658020 283.935791,267.084839 
	C285.006348,266.140991 286.076904,265.197174 287.265533,264.149200 
	C293.433167,268.158966 299.282196,272.379578 305.535645,275.877167 
	C309.560638,278.128387 310.430542,281.135559 309.862854,285.584747 
z"/>
<path fill="#6A1C97" opacity="1.000000" stroke="none" 
	d="
M268.043335,329.195953 
	C262.565002,333.208435 257.039246,337.158508 251.633240,341.266205 
	C249.660126,342.765472 248.115555,342.791046 246.173080,341.217285 
	C240.189728,336.369659 234.098175,331.655579 228.172516,326.486877 
	C229.414078,324.961884 230.531784,323.839569 231.840012,322.526001 
	C233.995331,324.300446 236.321625,325.762421 238.728104,322.394928 
	C239.221649,321.704254 240.827576,321.472839 241.873505,321.565186 
	C251.090439,322.378845 260.205078,323.625702 268.043335,329.195953 
z"/>
<path fill="#3348AF" opacity="1.000000" stroke="none" 
	d="
M236.679916,247.048065 
	C235.004028,250.619217 228.504669,253.307709 224.722183,252.271423 
	C223.444260,251.921310 222.095886,251.022964 220.924194,251.222687 
	C213.958588,252.410065 207.235825,251.940796 200.032776,248.812256 
	C197.000366,243.570938 197.483032,240.194794 200.891815,239.026672 
	C206.256668,237.188263 211.689484,235.548294 217.093536,233.824310 
	C222.120575,237.094559 227.165359,240.338013 232.163666,243.651596 
	C233.633743,244.626190 234.972168,245.799362 236.679916,247.048065 
z"/>
<path fill="#3350AF" opacity="1.000000" stroke="none" 
	d="
M281.971252,226.538300 
	C282.750549,227.189682 283.631012,228.211639 284.318481,229.350189 
	C284.874786,230.271469 285.023438,232.051346 285.656586,232.205826 
	C288.156250,232.815720 290.787292,232.858902 293.347717,233.254181 
	C297.294617,233.863495 297.640320,230.451996 299.120300,228.271805 
	C299.386658,227.879425 299.847290,227.618942 300.513306,227.154953 
	C300.842529,233.907196 300.968536,240.804062 300.818329,247.694901 
	C300.793915,248.814316 299.545837,249.907059 298.304504,250.775162 
	C296.247162,250.383087 294.737457,250.296432 293.253357,250.053574 
	C291.781799,249.812759 290.278656,249.569366 288.890289,249.054749 
	C285.468353,247.786423 282.167603,245.449493 278.702545,245.209274 
	C273.202667,244.827972 267.608582,245.805496 262.054352,246.208160 
	C267.331482,242.795486 272.570129,239.321213 277.899567,235.992279 
	C281.335388,233.846146 282.777771,230.944901 281.971252,226.538300 
z"/>
<path fill="#4232A6" opacity="1.000000" stroke="none" 
	d="
M269.113434,296.013062 
	C269.406311,292.234802 268.468842,290.113678 263.881866,290.826416 
	C260.556549,291.343048 257.068512,290.812103 253.281509,290.897003 
	C252.624481,286.549805 252.318512,282.055084 252.059326,277.557617 
	C251.807678,273.191254 251.604050,268.822144 252.097443,264.320496 
	C257.473022,264.945831 262.181824,265.492493 266.755341,266.598572 
	C268.058105,266.913635 268.967682,268.854462 270.057587,270.049744 
	C270.000183,278.391968 269.942749,286.734222 269.668579,295.542877 
	C269.451782,296.009308 269.113434,296.013062 269.113434,296.013062 
z"/>
<path fill="#4232A6" opacity="1.000000" stroke="none" 
	d="
M246.969833,295.496796 
	C242.082123,289.701630 235.981567,288.578217 228.591583,291.846924 
	C228.245407,287.044983 227.966064,282.087646 228.224640,277.158539 
	C228.461166,272.650238 227.901306,268.805420 223.171112,266.366638 
	C228.863190,266.394867 234.760849,266.443756 240.560059,267.224304 
	C242.299301,267.458405 243.763916,269.733124 245.607697,271.042847 
	C246.630646,275.487305 249.225906,279.522827 246.335571,284.635406 
	C244.893021,287.187073 246.637589,291.540588 246.969833,295.496796 
z"/>
<path fill="#611E9C" opacity="1.000000" stroke="none" 
	d="
M268.096832,329.191010 
	C260.205078,323.625702 251.090439,322.378845 241.873505,321.565186 
	C240.827576,321.472839 239.221649,321.704254 238.728104,322.394928 
	C236.321625,325.762421 233.995331,324.300446 231.840012,322.526001 
	C230.531784,323.839569 229.414078,324.961884 228.109863,326.146851 
	C227.995560,323.421478 228.067749,320.633392 228.466919,317.231506 
	C229.534393,315.026428 230.274887,313.435181 230.477386,313.000000 
	C239.610687,313.000000 248.020416,312.999237 256.430145,313.000183 
	C267.883759,313.001434 268.676575,313.782562 269.024078,325.404297 
	C269.038940,325.902008 269.039642,326.400146 268.877289,327.145508 
	C268.521851,327.954865 268.336060,328.516754 268.150269,329.078644 
	C268.150269,329.078644 268.150330,329.186066 268.096832,329.191010 
z"/>
<path fill="#57229F" opacity="1.000000" stroke="none" 
	d="
M269.046936,326.898071 
	C269.039642,326.400146 269.038940,325.902008 269.024078,325.404297 
	C268.676575,313.782562 267.883759,313.001434 256.430145,313.000183 
	C248.020416,312.999237 239.610687,313.000000 230.477386,313.000000 
	C230.274887,313.435181 229.534393,315.026428 228.521835,316.805634 
	C228.200745,313.914520 228.151718,310.835419 228.305923,307.080994 
	C228.688446,305.925690 228.867706,305.445770 229.046982,304.965881 
	C234.394531,304.495270 239.741989,303.656708 245.089600,303.655853 
	C250.625168,303.654938 256.161987,304.454010 261.696259,304.926453 
	C268.311218,305.491180 268.899841,304.859680 269.085541,296.458588 
	C269.113434,296.013062 269.451782,296.009308 269.620972,296.010071 
	C269.850647,306.017883 269.911194,316.024994 269.711304,326.482941 
	C269.450897,326.933807 269.046906,326.898071 269.046936,326.898071 
z"/>
<path fill="#1D95D4" opacity="1.000000" stroke="none" 
	d="
M231.982605,173.204010 
	C236.185745,169.783661 240.444321,166.428452 244.571472,162.918716 
	C247.080811,160.784760 249.502762,160.690125 252.073135,162.609421 
	C257.330597,166.535187 262.573547,170.480377 267.977448,174.760101 
	C268.132446,175.102615 268.038025,175.077621 267.677887,175.123718 
	C265.774414,176.050354 264.307648,177.120193 262.675293,177.780762 
	C252.037140,182.085770 242.031891,179.019638 232.111176,174.704041 
	C232.056961,174.003571 232.019775,173.603806 231.982605,173.204010 
z"/>
<path fill="#2B6BC1" opacity="1.000000" stroke="none" 
	d="
M228.086441,211.954468 
	C227.222839,212.837723 226.445984,214.306946 225.450089,214.474533 
	C221.495728,215.139969 217.386856,215.018066 213.495895,215.898193 
	C207.768997,217.193619 202.491394,217.306122 197.511047,213.038422 
	C196.597122,206.997757 196.164703,200.999588 202.292999,197.266357 
	C203.319260,196.641174 205.215393,196.175430 206.041321,196.696106 
	C211.337372,200.034607 216.446945,203.668915 221.905716,207.732513 
	C222.471039,208.486633 222.748459,208.714249 223.025894,208.941864 
	C223.195511,208.972717 223.365143,209.003571 223.935104,209.243439 
	C224.541122,209.640427 224.767929,209.798004 225.015869,209.925232 
	C225.504211,210.288773 225.992554,210.652313 226.916687,211.259705 
	C227.559952,211.681107 227.788147,211.826111 228.037048,211.938538 
	C228.037048,211.938538 228.072525,211.942261 228.086441,211.954468 
z"/>
<path fill="#393FAA" opacity="1.000000" stroke="none" 
	d="
M270.403351,270.001801 
	C268.967682,268.854462 268.058105,266.913635 266.755341,266.598572 
	C262.181824,265.492493 257.473022,264.945831 252.418213,264.100464 
	C252.056702,263.541992 252.092529,263.069824 252.415741,262.015411 
	C252.538300,259.303070 252.373459,257.173035 252.208618,255.042969 
	C253.913422,253.112213 255.618256,251.181473 257.834351,249.352295 
	C261.427185,250.568054 264.446625,251.919708 267.603607,252.745468 
	C273.616943,254.318329 278.382446,260.627228 285.659943,257.579559 
	C285.890259,257.483124 286.543457,258.396423 286.999542,258.838959 
	C281.582733,262.543945 276.165924,266.248901 270.403351,270.001801 
z"/>
<path fill="#492BA4" opacity="1.000000" stroke="none" 
	d="
M187.113831,287.455750 
	C196.033081,284.768097 204.412048,287.510010 212.924881,289.287842 
	C216.980988,290.134979 218.566177,292.206787 218.009811,296.994202 
	C218.034653,298.896332 218.057724,299.970734 218.073761,301.369965 
	C218.067596,302.126862 218.068451,302.558990 218.069305,302.991089 
	C218.069305,302.991089 218.082855,303.078033 217.641769,303.068176 
	C216.137100,303.046967 215.073502,303.035645 213.859970,302.693909 
	C212.590302,301.252411 211.571732,299.316650 210.334351,299.164886 
	C202.648544,298.222229 194.913681,297.679718 187.195068,297.004456 
	C187.145859,293.971497 187.096649,290.938507 187.113831,287.455750 
z"/>
<path fill="#2379C9" opacity="1.000000" stroke="none" 
	d="
M231.615509,173.277435 
	C232.019775,173.603806 232.056961,174.003571 231.937668,175.060089 
	C231.918716,179.117401 231.790131,182.563446 232.358612,185.890366 
	C232.525574,186.867477 235.023666,188.463150 235.853806,188.155838 
	C246.398407,184.252121 256.686157,186.575577 267.005707,189.438507 
	C267.362946,192.570038 267.715607,195.266602 268.125916,198.309204 
	C268.141022,199.120026 268.098480,199.584793 267.718872,199.980438 
	C266.074493,198.613693 264.955841,196.509628 263.428619,196.152435 
	C254.973892,194.174942 246.459549,193.308868 237.713821,194.887558 
	C235.066101,195.365494 232.028244,193.682205 229.169098,192.988846 
	C229.111755,187.941406 228.879272,182.886185 229.102829,177.851227 
	C229.170731,176.322357 230.497971,174.849396 231.615509,173.277435 
z"/>
<path fill="#3348AF" opacity="1.000000" stroke="none" 
	d="
M287.341125,258.804932 
	C286.543457,258.396423 285.890259,257.483124 285.659943,257.579559 
	C278.382446,260.627228 273.616943,254.318329 267.603607,252.745468 
	C264.446625,251.919708 261.427185,250.568054 258.142151,249.206909 
	C259.093536,248.055710 260.248383,247.151474 261.728821,246.227707 
	C267.608582,245.805496 273.202667,244.827972 278.702545,245.209274 
	C282.167603,245.449493 285.468353,247.786423 288.890289,249.054749 
	C290.278656,249.569366 291.781799,249.812759 293.253357,250.053574 
	C294.737457,250.296432 296.247162,250.383087 297.896637,250.829895 
	C294.592682,253.671356 291.137695,256.221100 287.341125,258.804932 
z"/>
<path fill="#2B6BC1" opacity="1.000000" stroke="none" 
	d="
M229.097687,193.429260 
	C232.028244,193.682205 235.066101,195.365494 237.713821,194.887558 
	C246.459549,193.308868 254.973892,194.174942 263.428619,196.152435 
	C264.955841,196.509628 266.074493,198.613693 267.767731,200.234283 
	C268.111877,200.724884 268.070068,200.892502 267.703491,201.186783 
	C264.816345,202.281204 262.289276,203.921951 259.683228,204.058762 
	C255.793320,204.262985 251.856110,203.222275 247.923981,203.045135 
	C241.635651,202.761871 235.070892,205.212952 229.214752,200.994583 
	C229.151932,198.619614 229.089111,196.244629 229.097687,193.429260 
z"/>
<path fill="#2F5FB9" opacity="1.000000" stroke="none" 
	d="
M229.145844,201.352081 
	C235.070892,205.212952 241.635651,202.761871 247.923981,203.045135 
	C251.856110,203.222275 255.793320,204.262985 259.683228,204.058762 
	C262.289276,203.921951 264.816345,202.281204 267.816162,201.353485 
	C268.370544,201.659683 268.569550,201.830246 268.850494,201.905228 
	C263.139313,206.267105 257.500549,210.730560 251.653168,214.901459 
	C250.541016,215.694748 248.085953,216.059555 247.130295,215.381714 
	C240.976166,211.016541 235.066727,206.306442 229.145844,201.352081 
z"/>
<path fill="#2B6BC1" opacity="1.000000" stroke="none" 
	d="
M298.931732,211.946747 
	C298.644928,222.165726 296.436401,223.360565 286.861755,219.551788 
	C281.740784,217.514679 276.218170,216.487091 270.438416,215.001953 
	C270.000000,215.000000 269.995575,214.997086 269.995575,214.997101 
	C270.912323,213.511688 271.829071,212.026276 272.852325,210.230621 
	C273.451752,209.315109 273.944641,208.709854 275.097412,208.092499 
	C279.325165,208.566269 283.378113,210.357117 286.354095,209.250824 
	C291.623047,207.292114 295.229736,208.788391 298.931732,211.946747 
z"/>
<path fill="#3350AF" opacity="1.000000" stroke="none" 
	d="
M216.944458,233.480408 
	C211.689484,235.548294 206.256668,237.188263 200.891815,239.026672 
	C197.483032,240.194794 197.000366,243.570938 199.625336,248.810699 
	C200.223511,249.722946 200.513855,250.429443 200.885803,251.409851 
	C197.838425,251.030304 196.921600,249.063721 197.001465,245.972412 
	C197.159439,239.858475 197.017365,233.734711 196.891144,227.617249 
	C196.865250,226.362305 196.365143,225.117142 196.440552,223.857864 
	C198.701126,226.874176 200.910873,228.142227 204.718735,226.615448 
	C207.741928,225.403320 211.185959,225.050797 214.480179,224.796310 
	C215.834915,224.691650 217.286850,225.844925 218.812241,226.740051 
	C218.133759,226.957947 217.337601,226.861816 215.834885,226.680344 
	C216.169708,228.930908 216.482529,231.033707 216.944458,233.480408 
z"/>
<path fill="#3350AF" opacity="1.000000" stroke="none" 
	d="
M188.724823,254.717972 
	C187.306168,254.717972 185.887497,254.717972 184.081482,254.717972 
	C184.081482,245.440353 184.081482,236.539520 184.081482,227.432877 
	C182.325912,227.153702 180.916458,226.929565 178.676880,226.573425 
	C180.838028,222.962189 182.699692,219.592316 184.894363,216.455429 
	C185.234756,215.968918 187.699432,216.099503 188.156326,216.710953 
	C190.378891,219.685211 192.252640,222.920135 194.567841,226.563080 
	C192.842026,226.771271 191.899582,226.884964 190.248657,226.895264 
	C189.322128,228.368439 188.937836,229.942551 188.914169,231.522049 
	C188.798325,239.253235 188.778564,246.985855 188.724823,254.717972 
z"/>
<path fill="#57229F" opacity="1.000000" stroke="none" 
	d="
M288.093811,308.435272 
	C289.298065,304.714600 291.841217,303.135925 295.519928,302.965546 
	C299.706818,302.771606 303.881531,302.314941 308.448120,301.988159 
	C308.883423,306.183350 308.967163,310.362823 308.969696,314.542389 
	C308.971649,317.822723 306.900940,318.798431 304.372894,317.548706 
	C298.893005,314.839813 293.626038,311.700195 288.093811,308.435272 
z"/>
<path fill="#4F28A3" opacity="1.000000" stroke="none" 
	d="
M187.140320,297.435669 
	C194.913681,297.679718 202.648544,298.222229 210.334351,299.164886 
	C211.571732,299.316650 212.590302,301.252411 213.638016,302.904602 
	C212.720474,304.543671 211.874954,305.641663 211.029434,306.739655 
	C210.867477,306.803558 210.705536,306.867462 210.028870,307.099670 
	C209.021484,307.802795 208.528809,308.337585 208.036133,308.872406 
	C207.534225,309.187775 207.032303,309.503143 205.907608,309.871582 
	C200.946442,308.026184 196.638809,306.052002 192.253189,304.269714 
	C190.685440,303.632568 188.929092,303.459442 187.258835,303.074493 
	C187.201080,301.338623 187.143311,299.602783 187.140320,297.435669 
z"/>
<path fill="#2379C9" opacity="1.000000" stroke="none" 
	d="
M298.941071,211.507751 
	C295.229736,208.788391 291.623047,207.292114 286.354095,209.250824 
	C283.378113,210.357117 279.325165,208.566269 275.363739,207.960999 
	C278.701019,204.992783 282.367188,202.053711 286.180481,199.319855 
	C290.225159,196.420090 294.292908,195.112808 297.912628,200.575455 
	C298.364502,204.281860 298.657440,207.675308 298.941071,211.507751 
z"/>
<path fill="#57229F" opacity="1.000000" stroke="none" 
	d="
M187.194702,303.531067 
	C188.929092,303.459442 190.685440,303.632568 192.253189,304.269714 
	C196.638809,306.052002 200.946442,308.026184 205.633484,309.993225 
	C200.821045,313.390533 195.718613,316.817322 190.451538,319.968933 
	C189.338562,320.634888 187.623123,320.294006 187.130585,320.336151 
	C187.130585,314.411255 187.130585,309.199463 187.194702,303.531067 
z"/>
<path fill="#3350AF" opacity="1.000000" stroke="none" 
	d="
M259.963989,217.815338 
	C261.429138,224.344833 263.495575,225.814377 273.602539,226.904404 
	C275.080994,227.063858 276.587158,226.966415 278.515076,227.003265 
	C272.719299,231.478790 266.488953,235.938889 259.664246,240.824478 
	C259.664246,232.360886 259.664246,225.215927 259.963989,217.815338 
z"/>
<path fill="#3350AF" opacity="1.000000" stroke="none" 
	d="
M219.100342,227.383942 
	C223.284760,227.555435 227.490860,227.656219 231.285568,230.818390 
	C234.364090,233.383759 236.810272,231.690826 236.953201,227.582092 
	C237.055969,224.627823 236.992584,221.667786 237.026245,218.319366 
	C237.696381,219.156296 238.862762,220.367493 238.902802,221.614838 
	C239.097565,227.681198 238.990829,233.757263 238.990829,240.859787 
	C231.883362,236.119980 225.564331,231.905945 219.100342,227.383942 
z"/>
<path fill="#3350AF" opacity="1.000000" stroke="none" 
	d="
M309.147003,243.170364 
	C309.802460,239.423248 306.760315,234.675690 312.467102,232.098511 
	C312.862305,236.351974 312.905640,240.707047 312.582001,245.475830 
	C311.192322,244.983154 310.169678,244.076752 309.147003,243.170364 
z"/>
<path fill="#393FAA" opacity="1.000000" stroke="none" 
	d="
M309.115784,243.610352 
	C310.169678,244.076752 311.192322,244.983154 312.522339,245.936172 
	C312.869141,248.116608 313.248413,250.324646 312.805206,252.352997 
	C312.582092,253.374130 310.865997,254.069016 309.406830,254.870087 
	C309.020599,251.235962 309.052582,247.643158 309.115784,243.610352 
z"/>
<path fill="#3350AF" opacity="1.000000" stroke="none" 
	d="
M218.880585,296.930115 
	C219.118195,289.222382 219.355804,281.514679 219.769287,273.448547 
	C219.901550,282.901093 219.857910,292.712067 219.391342,302.378387 
	C218.915878,301.816101 218.863342,301.398468 218.866364,300.579468 
	C218.908157,299.095459 218.894363,298.012787 218.880585,296.930115 
z"/>
<path fill="#BEB6F1" opacity="1.000000" stroke="none" 
	d="
M189.190094,254.772064 
	C188.778564,246.985855 188.798325,239.253235 188.914169,231.522049 
	C188.937836,229.942551 189.322128,228.368439 189.874542,226.880127 
	C190.024399,236.254318 189.839890,245.540253 189.190094,254.772064 
z"/>
<path fill="#BEB6F1" opacity="1.000000" stroke="none" 
	d="
M277.102356,272.270477 
	C277.362000,281.378143 277.542999,290.972015 277.464630,300.926056 
	C277.144714,291.776398 277.084198,282.266510 277.102356,272.270477 
z"/>
<path fill="#4232A6" opacity="1.000000" stroke="none" 
	d="
M211.162384,258.354248 
	C214.927811,260.488922 218.836380,262.926117 222.834106,265.692322 
	C219.050705,263.566498 215.178116,261.111603 211.162384,258.354248 
z"/>
<path fill="#BEB6F1" opacity="1.000000" stroke="none" 
	d="
M268.881500,201.443146 
	C268.569550,201.830246 268.370544,201.659683 268.140900,201.226837 
	C268.070068,200.892502 268.111877,200.724884 268.104828,200.303436 
	C268.098480,199.584793 268.141022,199.120026 268.222321,197.869843 
	C268.183960,194.102844 268.106812,191.121231 268.111145,187.674194 
	C268.141052,183.165039 268.089539,179.121323 268.038025,175.077621 
	C268.038025,175.077621 268.132446,175.102615 268.162598,175.063202 
	C268.426208,181.855972 268.671112,188.687775 268.885498,195.520554 
	C268.942566,197.339218 268.906036,199.160812 268.881500,201.443146 
z"/>
<path fill="#57229F" opacity="1.000000" stroke="none" 
	d="
M211.376068,306.784973 
	C211.874954,305.641663 212.720474,304.543671 213.787964,303.234985 
	C215.073502,303.035645 216.137100,303.046967 217.598373,303.075409 
	C215.904953,304.338470 213.813828,305.584381 211.376068,306.784973 
z"/>
<path fill="#4232A6" opacity="1.000000" stroke="none" 
	d="
M252.148926,255.468735 
	C252.373459,257.173035 252.538300,259.303070 252.458694,261.662903 
	C252.172562,259.893250 252.130890,257.893890 252.148926,255.468735 
z"/>
<path fill="#4232A6" opacity="1.000000" stroke="none" 
	d="
M227.756195,296.174652 
	C228.127655,296.859833 228.223251,297.688263 228.169983,298.741028 
	C227.840851,298.082855 227.660583,297.200378 227.756195,296.174652 
z"/>
<path fill="#4232A6" opacity="1.000000" stroke="none" 
	d="
M229.024384,304.633789 
	C228.867706,305.445770 228.688446,305.925690 228.376007,306.621033 
	C228.208084,305.196716 228.173309,303.557007 228.207520,301.511383 
	C228.518234,302.170929 228.760010,303.236328 229.024384,304.633789 
z"/>
<path fill="#6A1C97" opacity="1.000000" stroke="none" 
	d="
M268.877258,327.145508 
	C269.046906,326.898071 269.450897,326.933807 269.653259,326.945801 
	C269.527252,327.676270 269.198853,328.394745 268.510376,329.095947 
	C268.336060,328.516754 268.521851,327.954865 268.877258,327.145508 
z"/>
<path fill="#492BA4" opacity="1.000000" stroke="none" 
	d="
M283.624329,267.031006 
	C283.173798,267.658020 282.411804,268.231140 281.367645,268.870544 
	C281.827942,268.283539 282.570404,267.630341 283.624329,267.031006 
z"/>
<path fill="#57229F" opacity="1.000000" stroke="none" 
	d="
M208.372467,308.932983 
	C208.528809,308.337585 209.021484,307.802795 209.783020,307.187714 
	C209.604202,307.736145 209.156494,308.364868 208.372467,308.932983 
z"/>
<path fill="#4232A6" opacity="1.000000" stroke="none" 
	d="
M250.656525,296.025635 
	C250.439041,296.378693 249.933441,296.779388 249.227966,297.084503 
	C249.474838,296.683716 249.921616,296.378510 250.656525,296.025635 
z"/>
<path fill="#57229F" opacity="1.000000" stroke="none" 
	d="
M218.810791,300.980804 
	C218.863342,301.398468 218.915878,301.816101 218.996124,302.548401 
	C219.023804,302.863037 218.544846,302.920258 218.307068,302.955688 
	C218.068451,302.558990 218.067596,302.126862 218.255859,301.354706 
	C218.444977,301.014648 218.810791,300.980804 218.810791,300.980804 
z"/>
<path fill="#3350AF" opacity="1.000000" stroke="none" 
	d="
M279.351837,226.965897 
	C279.527679,226.695053 280.006989,226.430893 280.754700,226.100708 
	C280.567200,226.347305 280.111237,226.659927 279.351837,226.965897 
z"/>
<path fill="#4232A6" opacity="1.000000" stroke="none" 
	d="
M247.929596,296.651917 
	C247.761551,296.710754 247.547241,296.523834 247.212601,296.152008 
	C247.412384,295.999237 247.676056,296.145599 247.929596,296.651917 
z"/>
<path fill="#3350AF" opacity="1.000000" stroke="none" 
	d="
M261.646545,216.940811 
	C261.679749,217.119217 261.417664,217.316696 260.904541,217.595093 
	C260.921509,217.484238 261.154083,217.245529 261.646545,216.940811 
z"/>
<path fill="#2F5FB9" opacity="1.000000" stroke="none" 
	d="
M227.963196,211.710648 
	C227.788147,211.826111 227.559952,211.681107 227.203735,211.365753 
	C227.409271,211.063324 227.687393,211.148254 227.963196,211.710648 
z"/>
<path fill="#2F5FB9" opacity="1.000000" stroke="none" 
	d="
M224.955994,209.686707 
	C224.767929,209.798004 224.541122,209.640427 224.185455,209.308319 
	C224.403183,209.014359 224.690079,209.109039 224.955994,209.686707 
z"/>
<path fill="#2F5FB9" opacity="1.000000" stroke="none" 
	d="
M222.911942,208.680878 
	C222.748459,208.714249 222.471039,208.486633 221.992966,208.060638 
	C222.127548,208.048141 222.462769,208.234009 222.911942,208.680878 
z"/>
<path fill="#2B6BC1" opacity="1.000000" stroke="none" 
	d="
M270.001465,215.002197 
	C270.002899,215.004379 269.926575,215.039337 269.961060,215.018219 
	C269.995575,214.997086 270.000000,215.000000 270.001465,215.002197 
z"/>
<path fill="#4F28A3" opacity="1.000000" stroke="none" 
	d="
M218.866364,300.579468 
	C218.810791,300.980804 218.444977,301.014648 218.262878,301.029907 
	C218.057724,299.970734 218.034653,298.896332 218.012817,297.420471 
	C218.014053,297.019073 218.448517,296.980957 218.664551,296.955536 
	C218.894363,298.012787 218.908157,299.095459 218.866364,300.579468 
z"/>
<path fill="#3348AF" opacity="1.000000" stroke="none" 
	d="
M239.291306,250.783035 
	C239.726807,251.102783 239.968277,251.446625 240.209747,251.790466 
	C239.970520,251.933075 239.731277,252.075668 239.492035,252.218292 
	C239.360474,251.747910 239.228882,251.277527 239.291306,250.783035 
z"/>
<path fill="#3348AF" opacity="1.000000" stroke="none" 
	d="
M242.193085,254.859528 
	C242.184692,255.039627 242.111832,255.147263 242.038971,255.254913 
	C241.955185,255.160858 241.871399,255.066818 241.787613,254.972763 
	C241.901276,254.910858 242.014938,254.848953 242.193085,254.859528 
z"/>
<path fill="#1E86CF" opacity="1.000000" stroke="none" 
	d="
M267.677887,175.123718 
	C268.089539,179.121323 268.141052,183.165039 267.921692,187.793884 
	C267.410248,188.562225 267.193665,188.770416 267.001099,189.003555 
	C256.686157,186.575577 246.398407,184.252121 235.853806,188.155838 
	C235.023666,188.463150 232.525574,186.867477 232.358612,185.890366 
	C231.790131,182.563446 231.918716,179.117401 231.954712,175.360779 
	C242.031891,179.019638 252.037140,182.085770 262.675293,177.780762 
	C264.307648,177.120193 265.774414,176.050354 267.677887,175.123718 
z"/>
<path fill="#2B6BC1" opacity="1.000000" stroke="none" 
	d="
M267.005707,189.438507 
	C267.193665,188.770416 267.410248,188.562225 267.840240,188.259323 
	C268.106812,191.121231 268.183960,194.102844 268.164673,197.523804 
	C267.715607,195.266602 267.362946,192.570038 267.005707,189.438507 
z"/>
</svg>